<svg id="Capa_1" enable-background="new 0 0 511.985 511.985" height="512" viewBox="0 0 511.985 511.985" width="512" xmlns="http://www.w3.org/2000/svg"><g><g><g><path d="m382.553 207.833h60.434v32.91h-60.434z" fill="#544f57"/><path d="m333.839 290.891v-45.095l23.524 7.771-6.701 30.819" fill="#544f57"/><path d="m387.669 187.009h-74.468c-6.156 0-11.146 4.99-11.146 11.146v52.266c0 6.156 4.99 11.146 11.146 11.146h74.468c6.156 0 11.146-4.99 11.146-11.146v-52.266c0-6.156-4.99-11.146-11.146-11.146z" fill="#756e78"/><path d="m452.597 197.759h-19.219c-3.674 0-6.653 2.979-6.653 6.653v39.753c0 3.674 2.979 6.653 6.653 6.653h19.219c3.674 0 6.653-2.979 6.653-6.653v-39.753c-.001-3.674-2.979-6.653-6.653-6.653z" fill="#756e78"/><path d="m459.247 228.887v15.27c0 3.68-2.97 6.66-6.65 6.66h-19.22c-3.67 0-6.65-2.98-6.65-6.66v-15.27c0 3.68 2.98 6.66 6.65 6.66h19.22c3.68 0 6.65-2.98 6.65-6.66z" fill="#544f57"/><circle cx="332.731" cy="224.288" fill="#dfeaef" r="12.87"/><path d="m105.723 413.534s-23.557 7.02-31.639-1.062 0-28.815 0-28.815l40.02-16.377z" fill="#ffcbbe"/><path d="m94.214 415.887c-7.18.91-15.84.88-20.13-3.41-8.08-8.08 0-28.82 0-28.82l11.43-4.68 7.19 4.68c-.001 0-12.22 20.61 1.51 32.23z" fill="#eaac9d"/><path d="m241.254 259.911c40.387 13.86 83.451 22.475 83.451 22.475l1.657 21.537c-25.513 15.352-93.774 8.124-93.774 8.124s14.805 23.574 18.002 55.235l1.308 16.375s4.97 56.671-10.934 97.426h-49.701s12.463-57.778-12.238-82.48c-24.701 24.701-12.238 82.48-12.238 82.48h-49.701c-15.904-40.755-10.934-97.426-10.934-97.426h-32.068c0-89.667 36.407-119.283 42.714-123.745" fill="#f1d333"/><path d="m205.705 263.175 13.306 32.858-39.989-10.232-39.988 10.232 13.306-32.858" fill="#e7a52e"/><path d="m240.967 481.08-3.579 7.238-46.121-7.238s12.455-57.771-12.246-82.481c-24.7 24.71-12.236 82.481-12.236 82.481h-49.7c-15.902-40.752-10.93-97.427-10.93-97.427 0-5.61.528-11.189 1.305-16.371h143.131l1.305 16.371c.001 0 4.973 56.674-10.929 97.427z" fill="#756e78"/><path d="m133.803 259.911c-14.816 19.997-41.808 64.646-41.101 123.741h-18.622c0-89.665 36.408-119.278 42.715-123.741z" fill="#e7a52e"/><path d="m131.791 481.08-9.081 11.703-5.636-11.703c-15.902-40.752-10.93-97.427-10.93-97.427 0-5.61.528-11.189 1.305-16.371h23.585c-5.002 18.712-11.19 57.561.757 113.798z" fill="#544f57"/><path d="m204.228 481.08h-12.973s12.465-57.771-12.236-82.481c25.209 0 38.172 43.402 25.209 82.481z" fill="#544f57"/><path d="m282.617 189.3h.145c12.457 0 22.551-10.102 22.551-22.551 0-12.457-10.094-22.56-22.551-22.56-.162 0-.324 0-.486.009h-206.503c-.162-.009-.324-.009-.486-.009-12.457 0-22.551 10.102-22.551 22.56 0 12.449 10.094 22.551 22.551 22.551h.145" fill="#eaac9d"/><path d="m292.753 146.527-153.172.656-76.061.32c-5.799-52.941-22.628-121.695 39.203-133.948 14.845-2.944 28.213-4.691 40.228-5.511 80.482-5.462 100.502 30.879 100.502 30.879s14.566-12.794 30.403-11.49c5.725.467 11.622 2.789 17.051 8.218 28.64 28.639 1.846 110.876 1.846 110.876z" fill="#e27d47"/><path d="m273.856 27.432c-18.814 12.926-31.125 51.604-36.825 73.65-5.577-22.456 1.238-47.175 6.422-62.159 0 0 14.566-12.795 30.403-11.491z" fill="#dd542e"/><path d="m131.101 90.125 8.48 57.058-76.061.32c-5.799-52.941-22.628-121.695 39.203-133.948 14.845-2.944 28.213-4.691 40.228-5.511 0 .008-.008.008-.008.008-30.96 19.044-21.397 52.966-11.842 82.073z" fill="#dd542e"/><path d="m282.837 172.033c0 11.876-.303 23.76-.91 35.636-1.517 29.69-25.277 53.326-54.983 54.729-20.766.984-41.541 1.32-62.307 1.025h-.008c-11.179-.156-22.349-.5-33.528-1.025-29.698-1.402-53.458-25.039-54.983-54.729-1.083-21.16-1.197-42.312-.353-63.472h.008c11.581-4.289 18.47-17.625 22.562-32.453 4.199-15.214 18.773-23.53 32.765-21.619 5.454.746 10.826 3.051 15.452 7.103 9.292 8.136 20.881 12.204 32.47 12.204s23.186-4.068 32.478-12.204c5.757-5.044 12.655-7.373 19.446-7.373 12.671 0 24.965 8.119 28.771 21.89 4.084 14.828 10.974 28.164 22.562 32.453.377 9.284.558 18.56.558 27.835z" fill="#ffcbbe"/><path d="m164.628 263.423c-11.179-.156-22.349-.5-33.528-1.025-29.698-1.402-53.458-25.039-54.983-54.729-1.083-21.16-1.197-42.312-.353-63.472h.008c11.581-4.289 18.47-17.625 22.562-32.453 4.199-15.214 18.773-23.53 32.765-21.619-10.619 94.834.002 172.256 33.529 173.298z" fill="#eaac9d"/><path d="m102.175 504.485h64.611v-23.402h-41.21c-12.924 0-23.401 10.477-23.401 23.402z" fill="#aa593d"/><path d="m140.496 481.079c-12.923 0-23.405 10.482-23.405 23.405h-14.916c0-12.923 10.472-23.405 23.395-23.405z" fill="#934d36"/><path d="m255.874 504.485h-64.611v-23.402h41.21c12.924 0 23.401 10.477 23.401 23.402z" fill="#aa593d"/><path d="m361.905 293.635v8.03c0 6.21-5.03 11.24-11.24 11.24h-14.72c-6.21 0-11.24-5.03-11.24-11.24v-19.28h25.96c6.211 0 11.24 5.04 11.24 11.25z" fill="#ffcbbe"/><path d="m344.135 312.905h-8.19c-6.21 0-11.24-5.03-11.24-11.24v-19.28h18.6c-3.74 11.33-1.76 22.61.83 30.52z" fill="#eaac9d"/></g></g><g><path d="m349.723 120.387c.052.001.103.001.154.001 4.071 0 7.413-3.259 7.495-7.349l.469-23.272c.084-4.141-3.206-7.566-7.347-7.65-4.139-.083-7.566 3.206-7.649 7.347l-.469 23.272c-.084 4.143 3.206 7.567 7.347 7.651z"/><path d="m375.14 132.367c1.93 0 3.858-.74 5.325-2.218l21.143-21.315c2.917-2.941 2.897-7.689-.044-10.606-2.938-2.917-7.688-2.897-10.606.043l-21.143 21.315c-2.917 2.941-2.897 7.689.044 10.606 1.461 1.45 3.372 2.175 5.281 2.175z"/><path d="m381.259 151.652c.582 3.696 3.771 6.333 7.399 6.333.388 0 .781-.03 1.177-.093l22.153-3.491c4.091-.645 6.886-4.484 6.24-8.576-.645-4.091-4.48-6.887-8.576-6.241l-22.153 3.491c-4.091.646-6.886 4.486-6.24 8.577z"/><path d="m452.597 190.259h-19.219c-6.385 0-11.791 4.253-13.547 10.074h-13.516v-2.178c0-10.281-8.364-18.646-18.646-18.646h-74.469c-1.159 0-2.288.121-3.389.324 1.922-3.958 3.002-8.397 3.002-13.084 0-9.467-4.402-17.92-11.26-23.434 3.266-11.393 10.135-38.441 10.079-64.266-.009-4.137-3.365-7.484-7.5-7.484-.005 0-.011 0-.017 0-4.142.009-7.492 3.374-7.483 7.516.048 22.308-5.726 46.385-8.93 58.021-1.252-.208-2.53-.337-3.828-.385-8.924-4.069-14.124-16.791-16.93-26.968-3.436-12.454-12.865-22.102-25.226-25.808-12.328-3.696-25.473-.84-35.161 7.641-15.694 13.742-39.37 13.74-55.066 0-9.688-8.48-22.829-11.339-35.159-7.642-12.36 3.706-21.791 13.354-25.228 25.809-2.806 10.176-8.006 22.898-16.928 26.967-1.468.054-2.909.214-4.317.472-.362-2.914-.742-5.871-1.133-8.911-3.139-24.411-6.385-49.652-2.339-69.835 4.279-21.344 16.288-33.27 37.793-37.531 30.925-6.124 74.648-10.557 107.324 3.099 19.033 7.954 25.362 18.507 25.38 18.533 1.097 1.991 3.038 3.377 5.277 3.768 2.238.392 4.534-.254 6.242-1.754.057-.05 5.903-5.077 13.663-7.89 9.506-3.446 17.208-2.045 23.543 4.291 2.834 2.834 5.153 6.585 6.895 11.149 1.476 3.871 5.814 5.81 9.681 4.335 3.87-1.476 5.811-5.81 4.335-9.68-2.499-6.552-5.966-12.073-10.304-16.41-16.943-16.942-38.363-10.223-51.373-1.818-12.534-13.51-50.497-40.768-143.578-22.336-27.435 5.435-44.117 22.021-49.585 49.296-4.53 22.6-1.125 49.084 2.169 74.697.616 4.796 1.206 9.39 1.736 13.888-6.334 5.515-10.349 13.63-10.349 22.67 0 14.102 9.766 25.961 22.889 29.182.136 4.049.296 8.093.502 12.123 1.215 23.643 14.76 43.78 34.382 54.232-7.376 7.926-17.123 21.475-24.673 42.974-1.373 3.908.683 8.189 4.591 9.562.822.289 1.661.426 2.485.426 3.095 0 5.992-1.931 7.076-5.017 8.732-24.861 20.438-37.276 25.975-42.077 3.962.947 8.068 1.538 12.283 1.737 3.529.167 7.066.308 10.605.438l-9.27 22.891c-1.063 2.623-.559 5.62 1.304 7.751s4.766 3.031 7.507 2.33l30.633-7.838v64.32h-55.057c2.099-9.645 4.622-16.474 4.663-16.584 1.451-3.877-.515-8.197-4.392-9.65-3.877-1.456-8.201.51-9.655 4.389-.19.509-4.697 12.636-7.04 28.233-.514 3.422-.871 6.752-1.1 9.985h-17.272c.328-13.592 1.557-26.415 3.663-38.211.729-4.078-1.986-7.973-6.064-8.702-4.069-.73-7.973 1.987-8.701 6.064-2.574 14.415-3.904 30.215-3.974 46.968-2.253 6.278-7.927 25.389 2.184 35.502 4.672 4.672 11.827 6.09 18.795 6.09 3.81 0 7.559-.426 10.82-.974.978 17.298 3.627 37.718 9.905 55.985-8.214 5.56-13.624 14.964-13.624 25.608 0 4.142 3.357 7.5 7.5 7.5h64.611c4.143 0 7.5-3.358 7.5-7.5v-23.402c0-.557-.065-1.098-.18-1.62-2.84-13.291-6.61-48.273 4.917-68.498 11.539 20.248 7.748 55.285 4.908 68.539-.001.006-.001.012-.003.018-.056.264-.165 1.372-.165 1.561v.079.018 23.304c0 4.142 3.357 7.5 7.5 7.5h64.611c4.143 0 7.5-3.358 7.5-7.5 0-10.643-5.409-20.047-13.622-25.607 14.193-41.277 9.823-93.583 9.626-95.822l-1.311-16.37c-.004-.052-.009-.104-.014-.155-1.937-19.168-7.847-35.439-12.59-45.919 19.516 1.206 54.542 1.877 76.6-6.401 3.433 3.795 8.378 6.197 13.885 6.197h14.715c10.336 0 18.745-8.409 18.745-18.744v-8.032c0-6.988-3.851-13.084-9.535-16.307l1.795-8.257h26c10.281 0 18.646-8.365 18.646-18.646v-2.178h13.516c1.756 5.821 7.162 10.074 13.547 10.074h19.219c7.804 0 14.152-6.349 14.152-14.153v-39.753c0-7.804-6.348-14.153-14.152-14.153zm-392.362-23.51c0-5.642 3.121-10.563 7.723-13.143-.227 8.703-.289 17.435-.194 26.159-4.492-2.606-7.529-7.458-7.529-13.016zm229.853-13.144c4.603 2.579 7.726 7.501 7.726 13.144 0 5.559-3.037 10.412-7.531 13.018.095-8.739.033-17.472-.195-26.162zm-.671 54.447c.206-4.032.366-8.075.503-12.12 1.755-.431 3.449-1.017 5.069-1.742-.278 1.279-.434 2.603-.434 3.965v52.266c0 10.281 8.364 18.646 18.646 18.646h13.135v5.819h-.865c-4.782-.984-33.379-7.008-64.171-16.382 16.204-11.134 27.041-29.41 28.117-50.452zm-205.809-.766c-.987-19.308-1.159-38.888-.514-58.274 10.064-5.82 17.611-17.655 22.47-35.274 2.055-7.447 7.69-13.215 15.075-15.429 7.353-2.204 15.193-.499 20.971 4.56 10.666 9.337 24.038 14.005 37.414 14.003 13.373-.001 26.75-4.669 37.413-14.003 5.782-5.06 13.625-6.763 20.973-4.56 7.385 2.214 13.02 7.982 15.073 15.428 4.859 17.618 12.405 29.452 22.47 35.273.648 19.313.476 38.895-.516 58.276-1.325 25.922-21.895 46.395-47.847 47.62-31.56 1.491-63.566 1.491-95.136 0-25.945-1.225-46.514-21.698-47.846-47.62zm122.878 77.801-19.961-5.108v-8.999c4.726-.034 9.45-.096 14.169-.196zm-54.928 0 5.792-14.302c4.722.099 9.448.161 14.176.196v8.997zm-72.171 122.082c-2.102-2.102-1.643-9.296.148-16.015h18.648c-.186 4.246-.337 9.942-.279 16.593-8.856 1.765-16.598 1.342-18.517-.578zm32.171 89.816c2.676-4.984 7.933-8.382 13.97-8.4h33.759v8.4zm87.205 0v-8.4h33.759c6.037.018 11.293 3.416 13.97 8.4zm1.371-23.402c.857-6.127 1.756-14.828 1.77-24.464.04-25.333-5.874-44.113-17.578-55.818-2.93-2.929-7.678-2.929-10.607 0-11.704 11.704-17.618 30.484-17.579 55.817.016 9.636.913 18.337 1.77 24.464l-35.578.002c-12.958-38.195-8.512-95.724-8.222-98.804h129.558s5.041 60.548-7.954 98.804zm33.247-168.997c-2.862-.302-5.623 1.054-7.143 3.484-1.521 2.43-1.521 5.519-.005 7.952.125.201 11.404 18.522 15.763 43.758h-55.471v-64.318l30.626 7.836c.616.158 1.24.234 1.859.234 2.134 0 4.203-.913 5.647-2.565 1.861-2.131 2.366-5.128 1.304-7.75l-9.269-22.891c3.539-.13 7.075-.271 10.604-.438 4.742-.224 9.338-.959 13.753-2.123 30.879 10.426 63.1 17.858 76.154 20.698v11.564c-22.037 8.576-67.009 6.335-83.822 4.559zm121.028-2.923c0 2.065-1.68 3.744-3.745 3.744h-14.715c-.799 0-1.537-.256-2.145-.684.049-.453.072-.911.036-1.376l-1.038-13.462h17.862c2.065 0 3.745 1.68 3.745 3.745zm-9.356-26.776h-3.718v-5.819h4.983zm46.262-24.466c0 2.01-1.636 3.646-3.646 3.646h-74.469c-2.01 0-3.646-1.635-3.646-3.646v-52.266c0-2.01 1.636-3.646 3.646-3.646h74.469c2.01 0 3.646 1.635 3.646 3.646v9.678 32.91zm15-35.088h12.911v17.91h-12.911zm45.434 27.984h-17.523v-2.574-32.91-2.574h17.523z"/><path d="m332.731 203.918c-11.232 0-20.37 9.138-20.37 20.37s9.138 20.37 20.37 20.37 20.37-9.138 20.37-20.37-9.138-20.37-20.37-20.37zm0 25.74c-2.961 0-5.37-2.409-5.37-5.37s2.409-5.37 5.37-5.37 5.37 2.409 5.37 5.37-2.409 5.37-5.37 5.37z"/><path d="m377.162 218.054c-5.57-3.667-13.095 1.496-11.438 8.058.816 3.232 3.759 5.594 7.094 5.668 3.214.072 6.144-1.951 7.239-4.967 1.155-3.183-.062-6.894-2.895-8.759z"/><path d="m206.899 202.215c1.776-3.742.183-8.215-3.56-9.991-3.74-1.775-8.215-.183-9.991 3.56-2.612 5.504-8.235 9.061-14.325 9.061s-11.714-3.556-14.326-9.061c-1.776-3.743-6.252-5.334-9.991-3.56-3.742 1.776-5.336 6.25-3.56 9.991 5.083 10.709 16.025 17.629 27.877 17.629s22.793-6.92 27.876-17.629z"/><path d="m131.004 144.817c-5.196 0-9.424 6.285-9.424 14.01s4.228 14.01 9.424 14.01c5.195 0 9.423-6.285 9.423-14.01s-4.228-14.01-9.423-14.01z"/><path d="m227.041 172.837c5.195 0 9.423-6.285 9.423-14.01s-4.228-14.01-9.423-14.01c-5.196 0-9.424 6.285-9.424 14.01 0 7.726 4.228 14.01 9.424 14.01z"/></g></g></svg>